<svg width="48" height="48" viewBox="0 0 48 48" fill="none" xmlns="http://www.w3.org/2000/svg">
<path fill-rule="evenodd" clip-rule="evenodd" d="M17.16 19.251C17.16 19.251 19.98 17.5259 24 17.5259C28.02 17.5259 30.84 19.251 30.84 19.251C29.295 17.871 26.595 17.0759 26.595 17.0759L26.85 16.821C29.385 16.866 31.68 18.621 31.68 18.621C34.26 24.0059 34.095 28.656 34.095 28.656C31.995 31.371 28.875 31.176 28.875 31.176L27.81 29.826C29.685 29.421 30.87 27.756 30.87 27.756C30.87 27.756 28.05 29.6759 24 29.6759C19.95 29.6759 17.13 27.756 17.13 27.756C17.13 27.756 18.315 29.421 20.19 29.826L19.125 31.176C19.125 31.176 16.005 31.371 13.905 28.656C13.905 28.656 13.74 24.0059 16.32 18.621C16.32 18.621 18.615 16.866 21.15 16.821L21.405 17.0759C21.405 17.0759 18.705 17.871 17.16 19.251ZM22.65 25.116C22.665 24.066 21.87 23.211 20.895 23.211C19.92 23.211 19.155 24.066 19.155 25.116C19.155 26.151 19.935 27.0209 20.895 27.0209C21.87 27.0209 22.65 26.151 22.65 25.116ZM28.905 25.116C28.905 24.066 28.125 23.211 27.15 23.211C26.175 23.211 25.41 24.066 25.41 25.116C25.41 26.151 26.19 27.0209 27.15 27.0209C28.125 27.0209 28.905 26.151 28.905 25.116Z" fill="white"/>
</svg>
