<svg width="48" height="48" viewBox="0 0 48 48" fill="none" xmlns="http://www.w3.org/2000/svg">
<path d="M14.3086 30.3976C14.6195 30.4369 14.937 30.4582 15.2577 30.4582C17.1215 30.4614 18.8364 29.7889 20.1962 28.6598C18.4551 28.6189 16.9873 27.3884 16.4817 25.6996C16.7239 25.7504 16.9742 25.7798 17.2295 25.7814C17.5928 25.7831 17.943 25.734 18.2768 25.6391C16.4571 25.2365 15.0859 23.5102 15.0859 21.4533C15.0859 21.4353 15.0859 21.4173 15.0859 21.3993C15.6226 21.7233 16.2346 21.9196 16.8875 21.9491C15.8222 21.1784 15.1202 19.8693 15.1202 18.3965C15.1202 17.6176 15.3166 16.8911 15.6586 16.2693C17.6206 18.8629 20.5513 20.5844 23.8551 20.7987C23.7864 20.4894 23.752 20.1671 23.752 19.8382C23.752 17.5129 25.5324 15.6573 27.7284 15.6933C28.8722 15.7129 29.9064 16.2382 30.6313 17.0629C31.5379 16.8894 32.3888 16.5556 33.1562 16.0893C32.86 17.0596 32.2284 17.868 31.407 18.3736C32.212 18.2836 32.9779 18.0709 33.6913 17.7485C33.1579 18.5782 32.4837 19.3031 31.7064 19.8824C31.7146 20.0624 31.7179 20.2424 31.7179 20.4224C31.7179 25.9434 27.717 32.3105 20.4024 32.3073C18.159 32.3089 16.0677 31.6053 14.3086 30.3976Z" fill="white"/>
</svg>
